<mxfile host="app.diagrams.net" modified="2024-05-22T06:00:50.868Z" agent="Mozilla/5.0 (Windows NT 10.0; Win64; x64) AppleWebKit/537.36 (KHTML, like Gecko) Chrome/124.0.0.0 Safari/537.36" version="24.4.4" etag="p2O2sUbEYomRMlc4q-lv" type="github">
  <diagram name="Trang-1" id="RCR70F9NpSBM5-5opPlT">
    <mxGraphModel>
      <root>
        <mxCell id="0" />
        <mxCell id="1" parent="0" />
      </root>
    </mxGraphModel>
  </diagram>
</mxfile>
